<svg width="538" height="538" viewBox="0 0 538 538" fill="none" xmlns="http://www.w3.org/2000/svg">
<circle cx="269" cy="269" r="114.031" stroke="#BEBEBE" stroke-width="0.7"/>
<circle cx="269" cy="269" r="117.384" stroke="#BEBEBE" stroke-width="0.7"/>
<circle cx="269" cy="269" r="194.88" stroke="#BEBEBE" stroke-width="0.7"/>
<circle cx="269" cy="269" r="242.197" stroke="#BEBEBE" stroke-width="0.7" stroke-dasharray="2 2"/>
<rect x="300.692" y="173.97" width="63.3831" height="63.3831" transform="rotate(90 300.692 173.97)" stroke="#BEBEBE" stroke-width="0.7"/>
<rect x="236.608" y="238.053" width="63.3831" height="63.3831" transform="rotate(90 236.608 238.053)" stroke="#BEBEBE" stroke-width="0.7"/>
<rect x="364.402" y="237.308" width="63.3831" height="63.3831" transform="rotate(90 364.402 237.308)" stroke="#BEBEBE" stroke-width="0.7"/>
<rect x="348.754" y="192.227" width="63.3831" height="63.3831" transform="rotate(90 348.754 192.227)" stroke="#BEBEBE" stroke-width="0.7"/>
<rect x="300.692" y="298.784" width="63.3831" height="63.3831" transform="rotate(90 300.692 298.784)" stroke="#BEBEBE" stroke-width="0.7"/>
<rect x="249.649" y="279.782" width="63.3831" height="63.3831" transform="rotate(90 249.649 279.782)" stroke="#BEBEBE" stroke-width="0.7"/>
<rect x="269" y="158.846" width="155.782" height="155.782" transform="rotate(45 269 158.846)" stroke="#BEBEBE" stroke-width="0.7"/>
<rect x="269" y="172.018" width="63.3831" height="63.3831" transform="rotate(45 269 172.018)" fill="#F8F8F8" stroke="#BEBEBE" stroke-width="0.7"/>
<rect x="321.163" y="224.181" width="63.3831" height="63.3831" transform="rotate(45 321.163 224.181)" fill="#F8F8F8" stroke="#BEBEBE" stroke-width="0.7"/>
<rect x="216.837" y="224.181" width="63.3831" height="63.3831" transform="rotate(45 216.837 224.181)" fill="#F8F8F8" stroke="#BEBEBE" stroke-width="0.7"/>
<rect x="269" y="276.345" width="63.3831" height="63.3831" transform="rotate(45 269 276.345)" fill="#F8F8F8" stroke="#BEBEBE" stroke-width="0.7"/>
<path d="M269.025 199.078L338.971 269.025L269.025 338.971L199.078 269.025L269.025 199.078Z" fill="#FAFAFA" stroke="#BEBEBE" stroke-width="0.7"/>
<line x1="459.565" y1="79.1419" x2="352.604" y2="186.103" stroke="#C0C0C0"/>
<line x1="186.103" y1="352.604" x2="79.1419" y2="459.565" stroke="#C0C0C0"/>
<line x1="458.858" y1="459.565" x2="351.897" y2="352.604" stroke="#C0C0C0"/>
<line x1="185.396" y1="186.103" x2="78.4348" y2="79.1419" stroke="#C0C0C0"/>
<line x1="538" y1="269.5" x2="386.734" y2="269.5" stroke="#C0C0C0"/>
<line x1="151.266" y1="269.5" x2="6.09914e-05" y2="269.5" stroke="#C0C0C0"/>
<line x1="269.5" y1="2.18557e-08" x2="269.5" y2="151.266" stroke="#C0C0C0"/>
<line x1="269.5" y1="386.734" x2="269.5" y2="538" stroke="#C0C0C0"/>
<line x1="299.361" y1="155.148" x2="323.469" y2="65.1779" stroke="#D1D1D1" stroke-dasharray="2 2"/>
<line x1="214.31" y1="472.563" x2="238.418" y2="382.593" stroke="#D1D1D1" stroke-dasharray="2 2"/>
<line x1="327.807" y1="166.789" x2="374.379" y2="86.1241" stroke="#D1D1D1" stroke-dasharray="2 2"/>
<line x1="163.501" y1="451.376" x2="210.073" y2="370.711" stroke="#D1D1D1" stroke-dasharray="2 2"/>
<line x1="371.083" y1="209.7" x2="451.748" y2="163.128" stroke="#D1D1D1" stroke-dasharray="2 2"/>
<line x1="86.4968" y1="374.006" x2="167.162" y2="327.434" stroke="#D1D1D1" stroke-dasharray="2 2"/>
<line x1="382.966" y1="238.045" x2="472.936" y2="213.938" stroke="#D1D1D1" stroke-dasharray="2 2"/>
<line x1="65.5506" y1="323.096" x2="155.521" y2="298.989" stroke="#D1D1D1" stroke-dasharray="2 2"/>
<line x1="383.224" y1="298.989" x2="473.195" y2="323.096" stroke="#D1D1D1" stroke-dasharray="2 2"/>
<line x1="65.8095" y1="213.938" x2="155.78" y2="238.045" stroke="#D1D1D1" stroke-dasharray="2 2"/>
<line x1="371.583" y1="327.434" x2="452.248" y2="374.006" stroke="#D1D1D1" stroke-dasharray="2 2"/>
<line x1="86.9968" y1="163.128" x2="167.662" y2="209.7" stroke="#D1D1D1" stroke-dasharray="2 2"/>
<line x1="328.673" y1="370.711" x2="375.245" y2="451.376" stroke="#D1D1D1" stroke-dasharray="2 2"/>
<line x1="164.367" y1="86.1243" x2="210.939" y2="166.789" stroke="#D1D1D1" stroke-dasharray="2 2"/>
<line x1="300.327" y1="382.593" x2="324.435" y2="472.563" stroke="#D1D1D1" stroke-dasharray="2 2"/>
<line x1="215.276" y1="65.178" x2="239.384" y2="155.148" stroke="#D1D1D1" stroke-dasharray="2 2"/>
<line x1="339.684" y1="174.611" x2="374.647" y2="128.182" stroke="#DADADA"/>
<line x1="163.3" y1="408.844" x2="198.039" y2="362.712" stroke="#DADADA"/>
<line x1="284.475" y1="152.239" x2="292.188" y2="94.6312" stroke="#DADADA"/>
<line x1="245.566" y1="442.863" x2="253.23" y2="385.625" stroke="#DADADA"/>
<line x1="385.835" y1="252.867" x2="443.452" y2="245.228" stroke="#DADADA"/>
<line x1="95.1613" y1="291.409" x2="152.41" y2="283.818" stroke="#DADADA"/>
<line x1="363.063" y1="197.822" x2="409.537" y2="162.918" stroke="#DADADA"/>
<line x1="128.607" y1="373.91" x2="174.783" y2="339.229" stroke="#DADADA"/>
<line x1="363.03" y1="339.849" x2="409.188" y2="375.17" stroke="#DADADA"/>
<line x1="130.165" y1="161.663" x2="176.027" y2="196.757" stroke="#DADADA"/>
<line x1="385.827" y1="284.815" x2="443.374" y2="292.972" stroke="#DADADA"/>
<line x1="95.5116" y1="243.665" x2="152.689" y2="251.769" stroke="#DADADA"/>
<line x1="283.988" y1="385.45" x2="290.969" y2="443.152" stroke="#DADADA"/>
<line x1="248.769" y1="94.3557" x2="255.705" y2="151.687" stroke="#DADADA"/>
<line x1="339.29" y1="363.309" x2="373.661" y2="410.179" stroke="#DADADA"/>
<line x1="165.891" y1="126.857" x2="200.042" y2="173.427" stroke="#DADADA"/>
<path d="M225.759 159.918L186.467 61.0701" stroke="#C9C9C9"/>
<path d="M351.719 477.302L312.427 378.455" stroke="#C9C9C9"/>
<path d="M160.645 223.837L62.4768 182.878" stroke="#C9C9C9"/>
<path d="M475.709 355.494L377.541 314.535" stroke="#C9C9C9"/>
<path d="M160.616 314.466L62.487 355.519" stroke="#C9C9C9"/>
<path d="M475.7 182.854L377.57 223.906" stroke="#C9C9C9"/>
<path d="M224.044 377.759L183.357 476.041" stroke="#C9C9C9"/>
<path d="M354.829 62.3319L314.142 160.613" stroke="#C9C9C9"/>
<circle cx="173.062" cy="151.452" r="7.51039" stroke="#CBCBCB"/>
<circle cx="141.02" cy="348.918" r="17.1974" stroke="#CBCBCB"/>
<circle cx="347.055" cy="329.171" r="9.00069" stroke="#CBCBCB"/>
<circle cx="411.883" cy="205.848" r="5.64751" stroke="#CBCBCB"/>
<circle cx="347.055" cy="117.175" r="10.1184" stroke="#CBCBCB"/>
<mask id="path-70-inside-1_52_519" fill="white">
<path d="M291.31 289.643L291.312 289.653C291.312 293.033 288.368 295.759 284.723 295.759H279.337C275.607 295.759 271.962 296.828 268.814 298.881L268.648 299.009L268.483 298.881C265.332 296.834 261.683 295.751 257.96 295.759H252.574C248.929 295.759 245.945 293.021 245.945 289.643V242.335H281.243V237.331H241.057V289.643C241.057 295.802 246.195 300.765 252.533 300.765H257.918C264.795 300.765 268.606 305.512 268.606 305.512C268.606 305.512 272.418 300.765 279.295 300.765H284.68C291.02 300.765 296.156 295.761 296.156 289.643V252.773H291.31V289.643Z"/>
<path d="M283.647 237.331V242.335H287.914L268.648 257.905L256.054 247.768L248.348 253.97V260.344L256.054 254.141L268.648 264.278L291.352 245.929V250.291H296.198V237.331H283.647Z"/>
<path d="M279.376 289.554C278.097 290.905 276.364 291.431 275.587 290.701C275.236 290.37 275.119 289.809 275.259 289.123C275.413 288.359 275.861 287.557 276.516 286.863C277.403 285.926 278.508 285.386 279.362 285.386C279.739 285.386 280.066 285.492 280.304 285.715C281.078 286.444 280.653 288.202 279.376 289.554ZM282.24 283.661C281.385 282.856 280.124 282.601 278.698 282.941C278.057 283.094 277.416 283.368 276.798 283.73L276.078 283.052L276.074 283.056V283.055L275.455 283.71L274.77 283.066L275.202 282.608L273.781 281.27L273.458 281.612L272.398 280.614L272.288 280.731L271.261 279.765L269.15 281.752L269.151 281.753L269.151 281.753L270.299 282.833L270.104 283.04L271.164 284.037L270.846 284.373L270.846 284.374L270.826 284.395L272.246 285.732L272.267 285.71L272.268 285.71L272.781 285.168L273.466 285.813L272.718 286.604L272.718 286.604L272.715 286.607L273.421 287.272C273.079 287.925 272.835 288.599 272.717 289.265C272.459 290.708 272.789 291.946 273.644 292.749C274.252 293.322 275.064 293.616 275.996 293.616C276.375 293.616 276.774 293.567 277.186 293.469C278.126 293.246 279.064 292.766 279.928 292.107L281.755 293.826L283.744 291.723L283.743 291.722L281.927 290.014C282.557 289.099 282.995 288.115 283.167 287.146C283.424 285.702 283.095 284.465 282.24 283.661Z"/>
<path d="M257.803 289.569C257.148 288.876 256.701 288.073 256.547 287.31C256.407 286.623 256.524 286.062 256.875 285.731C257.113 285.508 257.441 285.402 257.818 285.402C258.672 285.402 259.777 285.942 260.664 286.879C261.941 288.23 262.366 289.988 261.591 290.717C260.819 291.447 259.082 290.921 257.803 289.569ZM255.448 293.826L257.249 292.132C258.526 293.098 259.938 293.619 261.186 293.619C262.098 293.619 262.921 293.344 263.535 292.765C264.819 291.557 264.836 289.368 263.761 287.292L264.488 286.607L264.485 286.604L264.485 286.604L263.737 285.813L264.422 285.168L264.956 285.732L266.377 284.395L266.357 284.374L266.357 284.373L266.039 284.037L267.099 283.04L266.904 282.833L281.986 268.646L279.996 266.544L279.996 266.545L279.995 266.545L278.497 267.954L275.142 264.364L274.814 264.67C274.696 264.779 274.605 264.905 274.513 265.029C274.111 265.573 273.941 266.24 274.035 266.886C273.887 266.853 273.734 266.834 273.579 266.829C273.229 266.811 272.898 266.866 272.593 266.983C272.288 267.1 272.008 267.279 271.76 267.509L271.431 267.815L274.806 271.426L268.625 277.241L262.4 271.423L265.772 267.815L265.771 267.815L265.772 267.815L265.442 267.509C265.292 267.369 265.126 267.256 264.953 267.156C264.931 267.144 264.908 267.134 264.885 267.122C264.726 267.037 264.56 266.972 264.386 266.924C264.371 266.92 264.356 266.916 264.341 266.912C264.174 266.87 264.003 266.846 263.825 266.84C263.794 266.839 263.764 266.835 263.733 266.835C263.696 266.835 263.661 266.827 263.624 266.829C263.469 266.834 263.316 266.853 263.168 266.886C263.283 266.092 263.021 265.257 262.39 264.671L262.061 264.364L262.061 264.365L262.06 264.364L258.697 267.962L257.192 266.556L257.162 266.586L257.13 266.556L255.233 268.573L255.254 268.593L255.226 268.622L260.176 273.249L266.505 279.235L264.915 280.731L264.805 280.614L263.746 281.612L263.423 281.27L262.001 282.608L262.433 283.066L261.748 283.71L261.129 283.055V283.056L261.125 283.052L260.388 283.746C258.384 282.578 256.214 282.476 254.939 283.676C253.469 285.059 253.664 287.725 255.25 290.037L253.459 291.722L253.46 291.723L253.459 291.723L255.448 293.826Z"/>
</mask>
<path d="M291.31 289.643L291.312 289.653C291.312 293.033 288.368 295.759 284.723 295.759H279.337C275.607 295.759 271.962 296.828 268.814 298.881L268.648 299.009L268.483 298.881C265.332 296.834 261.683 295.751 257.96 295.759H252.574C248.929 295.759 245.945 293.021 245.945 289.643V242.335H281.243V237.331H241.057V289.643C241.057 295.802 246.195 300.765 252.533 300.765H257.918C264.795 300.765 268.606 305.512 268.606 305.512C268.606 305.512 272.418 300.765 279.295 300.765H284.68C291.02 300.765 296.156 295.761 296.156 289.643V252.773H291.31V289.643Z" fill="#F3F3F3"/>
<path d="M283.647 237.331V242.335H287.914L268.648 257.905L256.054 247.768L248.348 253.97V260.344L256.054 254.141L268.648 264.278L291.352 245.929V250.291H296.198V237.331H283.647Z" fill="#F3F3F3"/>
<path d="M279.376 289.554C278.097 290.905 276.364 291.431 275.587 290.701C275.236 290.37 275.119 289.809 275.259 289.123C275.413 288.359 275.861 287.557 276.516 286.863C277.403 285.926 278.508 285.386 279.362 285.386C279.739 285.386 280.066 285.492 280.304 285.715C281.078 286.444 280.653 288.202 279.376 289.554ZM282.24 283.661C281.385 282.856 280.124 282.601 278.698 282.941C278.057 283.094 277.416 283.368 276.798 283.73L276.078 283.052L276.074 283.056V283.055L275.455 283.71L274.77 283.066L275.202 282.608L273.781 281.27L273.458 281.612L272.398 280.614L272.288 280.731L271.261 279.765L269.15 281.752L269.151 281.753L269.151 281.753L270.299 282.833L270.104 283.04L271.164 284.037L270.846 284.373L270.846 284.374L270.826 284.395L272.246 285.732L272.267 285.71L272.268 285.71L272.781 285.168L273.466 285.813L272.718 286.604L272.718 286.604L272.715 286.607L273.421 287.272C273.079 287.925 272.835 288.599 272.717 289.265C272.459 290.708 272.789 291.946 273.644 292.749C274.252 293.322 275.064 293.616 275.996 293.616C276.375 293.616 276.774 293.567 277.186 293.469C278.126 293.246 279.064 292.766 279.928 292.107L281.755 293.826L283.744 291.723L283.743 291.722L281.927 290.014C282.557 289.099 282.995 288.115 283.167 287.146C283.424 285.702 283.095 284.465 282.24 283.661Z" fill="#F3F3F3"/>
<path d="M257.803 289.569C257.148 288.876 256.701 288.073 256.547 287.31C256.407 286.623 256.524 286.062 256.875 285.731C257.113 285.508 257.441 285.402 257.818 285.402C258.672 285.402 259.777 285.942 260.664 286.879C261.941 288.23 262.366 289.988 261.591 290.717C260.819 291.447 259.082 290.921 257.803 289.569ZM255.448 293.826L257.249 292.132C258.526 293.098 259.938 293.619 261.186 293.619C262.098 293.619 262.921 293.344 263.535 292.765C264.819 291.557 264.836 289.368 263.761 287.292L264.488 286.607L264.485 286.604L264.485 286.604L263.737 285.813L264.422 285.168L264.956 285.732L266.377 284.395L266.357 284.374L266.357 284.373L266.039 284.037L267.099 283.04L266.904 282.833L281.986 268.646L279.996 266.544L279.996 266.545L279.995 266.545L278.497 267.954L275.142 264.364L274.814 264.67C274.696 264.779 274.605 264.905 274.513 265.029C274.111 265.573 273.941 266.24 274.035 266.886C273.887 266.853 273.734 266.834 273.579 266.829C273.229 266.811 272.898 266.866 272.593 266.983C272.288 267.1 272.008 267.279 271.76 267.509L271.431 267.815L274.806 271.426L268.625 277.241L262.4 271.423L265.772 267.815L265.771 267.815L265.772 267.815L265.442 267.509C265.292 267.369 265.126 267.256 264.953 267.156C264.931 267.144 264.908 267.134 264.885 267.122C264.726 267.037 264.56 266.972 264.386 266.924C264.371 266.92 264.356 266.916 264.341 266.912C264.174 266.87 264.003 266.846 263.825 266.84C263.794 266.839 263.764 266.835 263.733 266.835C263.696 266.835 263.661 266.827 263.624 266.829C263.469 266.834 263.316 266.853 263.168 266.886C263.283 266.092 263.021 265.257 262.39 264.671L262.061 264.364L262.061 264.365L262.06 264.364L258.697 267.962L257.192 266.556L257.162 266.586L257.13 266.556L255.233 268.573L255.254 268.593L255.226 268.622L260.176 273.249L266.505 279.235L264.915 280.731L264.805 280.614L263.746 281.612L263.423 281.27L262.001 282.608L262.433 283.066L261.748 283.71L261.129 283.055V283.056L261.125 283.052L260.388 283.746C258.384 282.578 256.214 282.476 254.939 283.676C253.469 285.059 253.664 287.725 255.25 290.037L253.459 291.722L253.46 291.723L253.459 291.723L255.448 293.826Z" fill="#F3F3F3"/>
<path d="M291.31 289.643L291.312 289.653C291.312 293.033 288.368 295.759 284.723 295.759H279.337C275.607 295.759 271.962 296.828 268.814 298.881L268.648 299.009L268.483 298.881C265.332 296.834 261.683 295.751 257.96 295.759H252.574C248.929 295.759 245.945 293.021 245.945 289.643V242.335H281.243V237.331H241.057V289.643C241.057 295.802 246.195 300.765 252.533 300.765H257.918C264.795 300.765 268.606 305.512 268.606 305.512C268.606 305.512 272.418 300.765 279.295 300.765H284.68C291.02 300.765 296.156 295.761 296.156 289.643V252.773H291.31V289.643Z" stroke="#C5C5C5" mask="url(#path-70-inside-1_52_519)"/>
<path d="M283.647 237.331V242.335H287.914L268.648 257.905L256.054 247.768L248.348 253.97V260.344L256.054 254.141L268.648 264.278L291.352 245.929V250.291H296.198V237.331H283.647Z" stroke="#C5C5C5" mask="url(#path-70-inside-1_52_519)"/>
<path d="M279.376 289.554C278.097 290.905 276.364 291.431 275.587 290.701C275.236 290.37 275.119 289.809 275.259 289.123C275.413 288.359 275.861 287.557 276.516 286.863C277.403 285.926 278.508 285.386 279.362 285.386C279.739 285.386 280.066 285.492 280.304 285.715C281.078 286.444 280.653 288.202 279.376 289.554ZM282.24 283.661C281.385 282.856 280.124 282.601 278.698 282.941C278.057 283.094 277.416 283.368 276.798 283.73L276.078 283.052L276.074 283.056V283.055L275.455 283.71L274.77 283.066L275.202 282.608L273.781 281.27L273.458 281.612L272.398 280.614L272.288 280.731L271.261 279.765L269.15 281.752L269.151 281.753L269.151 281.753L270.299 282.833L270.104 283.04L271.164 284.037L270.846 284.373L270.846 284.374L270.826 284.395L272.246 285.732L272.267 285.71L272.268 285.71L272.781 285.168L273.466 285.813L272.718 286.604L272.718 286.604L272.715 286.607L273.421 287.272C273.079 287.925 272.835 288.599 272.717 289.265C272.459 290.708 272.789 291.946 273.644 292.749C274.252 293.322 275.064 293.616 275.996 293.616C276.375 293.616 276.774 293.567 277.186 293.469C278.126 293.246 279.064 292.766 279.928 292.107L281.755 293.826L283.744 291.723L283.743 291.722L281.927 290.014C282.557 289.099 282.995 288.115 283.167 287.146C283.424 285.702 283.095 284.465 282.24 283.661Z" stroke="#C5C5C5" mask="url(#path-70-inside-1_52_519)"/>
<path d="M257.803 289.569C257.148 288.876 256.701 288.073 256.547 287.31C256.407 286.623 256.524 286.062 256.875 285.731C257.113 285.508 257.441 285.402 257.818 285.402C258.672 285.402 259.777 285.942 260.664 286.879C261.941 288.23 262.366 289.988 261.591 290.717C260.819 291.447 259.082 290.921 257.803 289.569ZM255.448 293.826L257.249 292.132C258.526 293.098 259.938 293.619 261.186 293.619C262.098 293.619 262.921 293.344 263.535 292.765C264.819 291.557 264.836 289.368 263.761 287.292L264.488 286.607L264.485 286.604L264.485 286.604L263.737 285.813L264.422 285.168L264.956 285.732L266.377 284.395L266.357 284.374L266.357 284.373L266.039 284.037L267.099 283.04L266.904 282.833L281.986 268.646L279.996 266.544L279.996 266.545L279.995 266.545L278.497 267.954L275.142 264.364L274.814 264.67C274.696 264.779 274.605 264.905 274.513 265.029C274.111 265.573 273.941 266.24 274.035 266.886C273.887 266.853 273.734 266.834 273.579 266.829C273.229 266.811 272.898 266.866 272.593 266.983C272.288 267.1 272.008 267.279 271.76 267.509L271.431 267.815L274.806 271.426L268.625 277.241L262.4 271.423L265.772 267.815L265.771 267.815L265.772 267.815L265.442 267.509C265.292 267.369 265.126 267.256 264.953 267.156C264.931 267.144 264.908 267.134 264.885 267.122C264.726 267.037 264.56 266.972 264.386 266.924C264.371 266.92 264.356 266.916 264.341 266.912C264.174 266.87 264.003 266.846 263.825 266.84C263.794 266.839 263.764 266.835 263.733 266.835C263.696 266.835 263.661 266.827 263.624 266.829C263.469 266.834 263.316 266.853 263.168 266.886C263.283 266.092 263.021 265.257 262.39 264.671L262.061 264.364L262.061 264.365L262.06 264.364L258.697 267.962L257.192 266.556L257.162 266.586L257.13 266.556L255.233 268.573L255.254 268.593L255.226 268.622L260.176 273.249L266.505 279.235L264.915 280.731L264.805 280.614L263.746 281.612L263.423 281.27L262.001 282.608L262.433 283.066L261.748 283.71L261.129 283.055V283.056L261.125 283.052L260.388 283.746C258.384 282.578 256.214 282.476 254.939 283.676C253.469 285.059 253.664 287.725 255.25 290.037L253.459 291.722L253.46 291.723L253.459 291.723L255.448 293.826Z" stroke="#C5C5C5" mask="url(#path-70-inside-1_52_519)"/>
</svg>
